solid STL generated by MeshLab
  facet normal  4.580626e-01  6.743771e-01 -5.791321e-01
    outer loop
      vertex   6.822523e+01  4.163470e-01  1.438539e+01
      vertex   7.423137e+01 -1.148669e+01  5.275290e+00
      vertex   5.636407e+01  6.604677e-01  5.288113e+00
    endloop
  endfacet
  facet normal -8.860617e-01  3.719801e-01  2.766322e-01
    outer loop
      vertex  -2.317900e+00 -2.473118e+01  1.098673e+01
      vertex  -3.563997e-02 -1.504720e+01  5.275086e+00
      vertex  -3.503067e+00 -2.330666e+01  5.275087e+00
    endloop
  endfacet
  facet normal  9.262041e-03 -7.743926e-03 -9.999271e-01
    outer loop
      vertex   7.089102e+01 -2.310494e+01  5.334326e+00
      vertex   6.098081e+01 -2.727307e+01  5.274811e+00
      vertex   7.423137e+01 -1.148669e+01  5.275290e+00
    endloop
  endfacet
  facet normal -1.486814e-01 -4.984451e-01 -8.540763e-01
    outer loop
      vertex   8.842993e-01 -2.995245e+01  8.389843e+00
      vertex  -3.503067e+00 -2.330666e+01  5.275087e+00
      vertex   1.155175e+01 -2.779754e+01  5.275187e+00
    endloop
  endfacet
  facet normal -1.979687e-02 -1.063348e-01 -9.941333e-01
    outer loop
      vertex   1.927509e+01 -3.671013e+01  6.074698e+00
      vertex   1.155175e+01 -2.779754e+01  5.275187e+00
      vertex   3.921696e+01 -3.294719e+01  5.275089e+00
    endloop
  endfacet
  facet normal  3.212475e-03 -1.237087e-02 -9.999183e-01
    outer loop
      vertex   4.665522e+01 -3.356494e+01  5.306629e+00
      vertex   3.921696e+01 -3.294719e+01  5.275089e+00
      vertex   6.098081e+01 -2.727307e+01  5.274811e+00
    endloop
  endfacet
  facet normal -2.048194e-05 -9.095937e-05 -1.000000e+00
    outer loop
      vertex   1.155175e+01 -2.779754e+01  5.275187e+00
      vertex  -3.503067e+00 -2.330666e+01  5.275087e+00
      vertex   3.921696e+01 -3.294719e+01  5.275089e+00
    endloop
  endfacet
  facet normal  1.698218e-08 -1.225938e-07 -1.000000e+00
    outer loop
      vertex  -3.503067e+00 -2.330666e+01  5.275087e+00
      vertex  -3.563997e-02 -1.504720e+01  5.275086e+00
      vertex   3.921696e+01 -3.294719e+01  5.275089e+00
    endloop
  endfacet
  facet normal -8.100474e-06 -1.792324e-05 -1.000000e+00
    outer loop
      vertex   3.921696e+01 -3.294719e+01  5.275089e+00
      vertex  -3.563997e-02 -1.504720e+01  5.275086e+00
      vertex   6.098081e+01 -2.727307e+01  5.274811e+00
    endloop
  endfacet
  facet normal  1.341668e-06  2.920028e-05 -1.000000e+00
    outer loop
      vertex   6.098081e+01 -2.727307e+01  5.274811e+00
      vertex  -3.563997e-02 -1.504720e+01  5.275086e+00
      vertex   7.423137e+01 -1.148669e+01  5.275290e+00
    endloop
  endfacet
  facet normal -2.706252e-02  1.129461e-02 -9.995699e-01
    outer loop
      vertex  -7.536015e+00  4.799800e-01  5.653601e+00
      vertex   7.499209e+00  5.543907e+00  5.303755e+00
      vertex  -3.563997e-02 -1.504720e+01  5.275086e+00
    endloop
  endfacet
  facet normal -6.978564e-04  1.290883e-03 -9.999989e-01
    outer loop
      vertex   1.491204e+01  1.829805e+01  5.315046e+00
      vertex   5.478268e+01  1.251942e+01  5.279762e+00
      vertex   7.499209e+00  5.543907e+00  5.303755e+00
    endloop
  endfacet
  facet normal -7.534929e-04  1.668016e-03 -9.999983e-01
    outer loop
      vertex   7.499209e+00  5.543907e+00  5.303755e+00
      vertex   5.478268e+01  1.251942e+01  5.279762e+00
      vertex  -3.563997e-02 -1.504720e+01  5.275086e+00
    endloop
  endfacet
  facet normal  4.117856e-04 -6.492294e-04 -9.999998e-01
    outer loop
      vertex   5.478268e+01  1.251942e+01  5.279762e+00
      vertex   5.636407e+01  6.604677e-01  5.288113e+00
      vertex  -3.563997e-02 -1.504720e+01  5.275086e+00
    endloop
  endfacet
  facet normal -4.471494e-05  9.898744e-04 -9.999995e-01
    outer loop
      vertex   5.636407e+01  6.604677e-01  5.288113e+00
      vertex   7.423137e+01 -1.148669e+01  5.275290e+00
      vertex  -3.563997e-02 -1.504720e+01  5.275086e+00
    endloop
  endfacet
  facet normal -6.802050e-01 -7.113262e-01 -1.770207e-01
    outer loop
      vertex  -2.300705e+01 -2.359325e+01  6.376492e+01
      vertex  -1.869409e+01 -2.631175e+01  5.811609e+01
      vertex  -1.491684e+01 -3.318015e+01  7.120139e+01
    endloop
  endfacet
  facet normal -6.110843e-01 -7.866657e-01 -8.793784e-02
    outer loop
      vertex  -2.856853e+00 -3.918396e+00  1.248444e+01
      vertex  -7.536015e+00  4.799800e-01  5.653601e+00
      vertex   7.532763e+00 -1.174999e+01  1.034560e+01
    endloop
  endfacet
  facet normal -2.730761e-01  8.686369e-01 -4.133997e-01
    outer loop
      vertex  -6.420513e+00  1.198661e+01  6.561791e+01
      vertex   2.108014e+00  1.254310e+01  6.115358e+01
      vertex  -1.671939e+01  6.939272e+00  6.181548e+01
    endloop
  endfacet
  facet normal -4.576681e-01  8.869398e-01  6.227140e-02
    outer loop
      vertex  -1.671939e+01  6.939272e+00  6.181548e+01
      vertex  -9.279182e+00  9.087935e+00  8.589413e+01
      vertex  -6.420513e+00  1.198661e+01  6.561791e+01
    endloop
  endfacet
  facet normal -8.859962e-01  4.409742e-01 -1.433614e-01
    outer loop
      vertex  -2.463901e+01 -8.708202e+00  6.262897e+01
      vertex  -2.067104e+01  1.149122e+00  6.842700e+01
      vertex  -1.671939e+01  6.939272e+00  6.181548e+01
    endloop
  endfacet
  facet normal -2.173553e-01  9.700949e-01  1.080400e-01
    outer loop
      vertex  -6.420513e+00  1.198661e+01  6.561791e+01
      vertex  -9.279182e+00  9.087935e+00  8.589413e+01
      vertex   3.005467e-01  1.206050e+01  7.847591e+01
    endloop
  endfacet
  facet normal -7.558595e-01  6.196970e-01  2.113102e-01
    outer loop
      vertex  -9.279182e+00  9.087935e+00  8.589413e+01
      vertex  -2.067104e+01  1.149122e+00  6.842700e+01
      vertex  -1.736212e+01 -1.302376e+00  8.745240e+01
    endloop
  endfacet
  facet normal -9.365144e-01  2.132960e-01  2.782906e-01
    outer loop
      vertex  -2.059663e+01 -7.632354e+00  7.540797e+01
      vertex  -2.067104e+01  1.149122e+00  6.842700e+01
      vertex  -2.463901e+01 -8.708202e+00  6.262897e+01
    endloop
  endfacet
  facet normal -5.645595e-02 -8.994645e-01 -4.333316e-01
    outer loop
      vertex  -9.279182e+00  9.087935e+00  8.589413e+01
      vertex  -6.792906e+00  1.176357e+01  8.001640e+01
      vertex   3.005467e-01  1.206050e+01  7.847591e+01
    endloop
  endfacet
  facet normal -5.210360e-02 -3.268348e-01  9.436442e-01
    outer loop
      vertex  -2.856853e+00 -3.918396e+00  1.248444e+01
      vertex   7.532763e+00 -1.174999e+01  1.034560e+01
      vertex   6.150977e+00  3.444520e+00  1.553199e+01
    endloop
  endfacet
  facet normal -6.455609e-01  7.604030e-01  7.098144e-02
    outer loop
      vertex   6.150977e+00  3.444520e+00  1.553199e+01
      vertex   7.499209e+00  5.543907e+00  5.303755e+00
      vertex  -2.856853e+00 -3.918396e+00  1.248444e+01
    endloop
  endfacet
  facet normal -9.886473e-01 -1.205304e-01  8.971608e-02
    outer loop
      vertex   7.532763e+00 -1.174999e+01  1.034560e+01
      vertex   8.067485e+00 -1.001481e+01  1.856924e+01
      vertex   6.150977e+00  3.444520e+00  1.553199e+01
    endloop
  endfacet
  facet normal -3.876813e-01  4.243166e-01  8.183267e-01
    outer loop
      vertex  -1.736212e+01 -1.302376e+00  8.745240e+01
      vertex  -6.341752e+00  3.568226e+00  9.014780e+01
      vertex  -9.279182e+00  9.087935e+00  8.589413e+01
    endloop
  endfacet
  facet normal -4.802932e-01 -6.570380e-01  5.810503e-01
    outer loop
      vertex  -1.979636e+01 -2.354190e+01  7.806670e+01
      vertex  -1.491684e+01 -3.318015e+01  7.120139e+01
      vertex  -1.020585e+01 -2.198395e+01  8.775587e+01
    endloop
  endfacet
  facet normal -6.880727e-01  6.255012e-01 -3.678373e-01
    outer loop
      vertex  -1.587325e+01  5.667487e+00  4.313447e+01
      vertex  -4.734532e+00  1.607808e+01  4.000155e+01
      vertex  -8.455625e+00  4.079820e+00  2.655934e+01
    endloop
  endfacet
  facet normal -8.673950e-01  4.741332e-01 -1.510749e-01
    outer loop
      vertex  -9.279182e+00  9.087935e+00  8.589413e+01
      vertex  -4.637623e+00  1.759976e+01  8.595815e+01
      vertex  -6.792906e+00  1.176357e+01  8.001640e+01
    endloop
  endfacet
  facet normal -8.367697e-01  4.585475e-01 -2.992503e-01
    outer loop
      vertex  -4.637623e+00  1.759976e+01  8.595815e+01
      vertex  -9.279182e+00  9.087935e+00  8.589413e+01
      vertex  -3.863001e+00  2.459447e+01  9.451027e+01
    endloop
  endfacet
  facet normal -8.776522e-01  4.121620e-02  4.775226e-01
    outer loop
      vertex  -3.473199e+00  1.085344e+01  9.641272e+01
      vertex  -3.863001e+00  2.459447e+01  9.451027e+01
      vertex  -9.279182e+00  9.087935e+00  8.589413e+01
    endloop
  endfacet
  facet normal -6.010948e-01 -4.417313e-01  6.660019e-01
    outer loop
      vertex  -2.253155e+01 -8.419960e+00  8.562783e+01
      vertex  -1.979636e+01 -2.354190e+01  7.806670e+01
      vertex  -1.020585e+01 -2.198395e+01  8.775587e+01
    endloop
  endfacet
  facet normal -6.719078e-01  7.379305e-01  6.323456e-02
    outer loop
      vertex  -1.587325e+01  5.667487e+00  4.313447e+01
      vertex  -5.425049e+00  1.454173e+01  5.059323e+01
      vertex  -4.734532e+00  1.607808e+01  4.000155e+01
    endloop
  endfacet
  facet normal -7.177987e-01  6.608273e-01  2.192538e-01
    outer loop
      vertex  -1.413155e+01  3.628536e+00  5.498186e+01
      vertex  -5.425049e+00  1.454173e+01  5.059323e+01
      vertex  -1.587325e+01  5.667487e+00  4.313447e+01
    endloop
  endfacet
  facet normal -6.926485e-01 -6.976952e-01 -1.829190e-01
    outer loop
      vertex  -1.774297e+01 -1.651018e+01  4.197913e+01
      vertex  -1.005764e+01 -2.099952e+01  3.000094e+01
      vertex  -5.378124e+00 -2.844398e+01  4.067617e+01
    endloop
  endfacet
  facet normal -7.919520e-01  6.017359e-01 -1.035667e-01
    outer loop
      vertex  -2.253155e+01 -8.419960e+00  8.562783e+01
      vertex  -1.736212e+01 -1.302376e+00  8.745240e+01
      vertex  -2.059663e+01 -7.632354e+00  7.540797e+01
    endloop
  endfacet
  facet normal -9.722100e-01  1.405813e-01  1.872022e-01
    outer loop
      vertex  -2.067104e+01  1.149122e+00  6.842700e+01
      vertex  -2.059663e+01 -7.632354e+00  7.540797e+01
      vertex  -1.736212e+01 -1.302376e+00  8.745240e+01
    endloop
  endfacet
  facet normal  3.275206e-01  9.429086e-01  6.044374e-02
    outer loop
      vertex   1.239039e+01  8.451299e+00  6.926856e+01
      vertex   2.108014e+00  1.254310e+01  6.115358e+01
      vertex   3.005467e-01  1.206050e+01  7.847591e+01
    endloop
  endfacet
  facet normal -4.293233e-02  9.842966e-01  1.712220e-01
    outer loop
      vertex   1.484423e+01  1.446030e+01  6.407790e+01
      vertex   3.561258e+01  1.605044e+01  6.014419e+01
      vertex   3.283653e+01  1.825318e+01  4.678536e+01
    endloop
  endfacet
  facet normal -2.262187e-01  5.641599e-01 -7.940710e-01
    outer loop
      vertex  -8.455625e+00  4.079820e+00  2.655934e+01
      vertex   4.239265e+00  1.575254e+01  3.123582e+01
      vertex   5.427819e+00  3.043904e+00  2.186817e+01
    endloop
  endfacet
  facet normal -8.544359e-01 -2.551697e-01 -4.525791e-01
    outer loop
      vertex  -1.005764e+01 -2.099952e+01  3.000094e+01
      vertex  -1.774297e+01 -1.651018e+01  4.197913e+01
      vertex  -1.866138e+01 -6.695148e+00  3.817920e+01
    endloop
  endfacet
  facet normal -4.734882e-01 -8.531044e-01  2.191392e-01
    outer loop
      vertex  -9.070061e+00 -2.276773e+01  5.479661e+01
      vertex  -5.378124e+00 -2.844398e+01  4.067617e+01
      vertex   5.808916e-02 -2.994268e+01  4.658763e+01
    endloop
  endfacet
  facet normal  4.651016e-01 -1.936760e-01  8.638114e-01
    outer loop
      vertex   3.058067e+01  7.008968e+00  6.666895e+01
      vertex   1.565356e+01 -2.801218e+00  7.250660e+01
      vertex   1.777268e+01 -5.256981e+00  7.081499e+01
    endloop
  endfacet
  facet normal -5.554063e-02  9.940428e-01 -9.377616e-02
    outer loop
      vertex   2.387436e+01  1.748760e+01  3.799853e+01
      vertex   4.239265e+00  1.575254e+01  3.123582e+01
      vertex  -4.734532e+00  1.607808e+01  4.000155e+01
    endloop
  endfacet
  facet normal -8.328823e-01  5.121872e-01 -2.096932e-01
    outer loop
      vertex   1.118608e+01  5.826099e+00  7.972004e+01
      vertex   7.059940e+00  6.316053e+00  9.730544e+01
      vertex   1.353832e+01  1.283776e+01  8.750353e+01
    endloop
  endfacet
  facet normal -7.261146e-02  9.172513e-01 -3.916345e-01
    outer loop
      vertex   6.387818e+00  2.049004e+01  4.827269e+01
      vertex   2.387436e+01  1.748760e+01  3.799853e+01
      vertex  -4.734532e+00  1.607808e+01  4.000155e+01
    endloop
  endfacet
  facet normal -2.023153e-01 -8.377248e-01  5.072334e-01
    outer loop
      vertex   5.808916e-02 -2.994268e+01  4.658763e+01
      vertex   4.314745e+00 -2.227061e+01  6.095631e+01
      vertex  -9.070061e+00 -2.276773e+01  5.479661e+01
    endloop
  endfacet
  facet normal  4.560358e-01  8.493170e-01  2.658796e-01
    outer loop
      vertex   1.118608e+01  5.826099e+00  7.972004e+01
      vertex   1.239039e+01  8.451299e+00  6.926856e+01
      vertex   3.005467e-01  1.206050e+01  7.847591e+01
    endloop
  endfacet
  facet normal -7.333559e-01 -6.567806e-01  1.755797e-01
    outer loop
      vertex  -1.774297e+01 -1.651018e+01  4.197913e+01
      vertex  -9.070061e+00 -2.276773e+01  5.479661e+01
      vertex  -1.809503e+01 -1.246459e+01  5.564175e+01
    endloop
  endfacet
  facet normal  5.809717e-01 -6.500096e-01  4.898564e-01
    outer loop
      vertex  -3.473199e+00  1.085344e+01  9.641272e+01
      vertex  -6.341752e+00  3.568226e+00  9.014780e+01
      vertex   3.775163e+00  1.160147e+01  8.880872e+01
    endloop
  endfacet
  facet normal -9.957111e-01 -9.250013e-02  1.732358e-03
    outer loop
      vertex  -1.866138e+01 -6.695148e+00  3.817920e+01
      vertex  -1.774297e+01 -1.651018e+01  4.197913e+01
      vertex  -1.809503e+01 -1.246459e+01  5.564175e+01
    endloop
  endfacet
  facet normal -4.313622e-01  8.964052e-01  1.019039e-01
    outer loop
      vertex  -5.425049e+00  1.454173e+01  5.059323e+01
      vertex   6.387818e+00  2.049004e+01  4.827269e+01
      vertex  -4.734532e+00  1.607808e+01  4.000155e+01
    endloop
  endfacet
  facet normal  5.600080e-02  6.166552e-01 -7.852390e-01
    outer loop
      vertex   1.353832e+01  1.283776e+01  8.750353e+01
      vertex   2.665470e+01  1.975312e+01  9.386964e+01
      vertex   3.284473e+01  1.526793e+01  9.078884e+01
    endloop
  endfacet
  facet normal -3.458657e-01  8.455393e-01  4.067433e-01
    outer loop
      vertex   6.387818e+00  2.049004e+01  4.827269e+01
      vertex  -5.425049e+00  1.454173e+01  5.059323e+01
      vertex   2.108014e+00  1.254310e+01  6.115358e+01
    endloop
  endfacet
  facet normal -8.377775e-01  3.539535e-01 -4.157472e-01
    outer loop
      vertex  -4.637623e+00  1.759976e+01  8.595815e+01
      vertex   4.379550e+00  4.278270e+01  8.922746e+01
      vertex   3.207345e+00  3.297364e+01  8.323846e+01
    endloop
  endfacet
  facet normal  5.211397e-01 -8.194164e-01  2.386845e-01
    outer loop
      vertex  -9.532318e-01 -2.332759e+01  7.685567e+01
      vertex   1.185321e+01 -1.909315e+01  6.343140e+01
      vertex   1.012883e+01 -1.671442e+01  7.536268e+01
    endloop
  endfacet
  facet normal -7.263237e-01  5.628355e-01 -3.945504e-01
    outer loop
      vertex   2.252096e+00  3.196155e+01  9.376237e+01
      vertex  -4.637623e+00  1.759976e+01  8.595815e+01
      vertex  -3.863001e+00  2.459447e+01  9.451027e+01
    endloop
  endfacet
  facet normal  8.495812e-01 -4.800732e-01  2.184981e-01
    outer loop
      vertex   1.185321e+01 -1.909315e+01  6.343140e+01
      vertex   1.777268e+01 -5.256981e+00  7.081499e+01
      vertex   1.012883e+01 -1.671442e+01  7.536268e+01
    endloop
  endfacet
  facet normal -9.530501e-01  2.421751e-01  1.817878e-01
    outer loop
      vertex  -1.809503e+01 -1.246459e+01  5.564175e+01
      vertex  -1.413155e+01  3.628536e+00  5.498186e+01
      vertex  -1.587325e+01  5.667487e+00  4.313447e+01
    endloop
  endfacet
  facet normal -6.843373e-01  1.391921e-01 -7.157571e-01
    outer loop
      vertex  -2.463901e+01 -8.708202e+00  6.262897e+01
      vertex  -1.413155e+01  3.628536e+00  5.498186e+01
      vertex  -1.809503e+01 -1.246459e+01  5.564175e+01
    endloop
  endfacet
  facet normal -7.916834e-01  3.756451e-01 -4.817966e-01
    outer loop
      vertex  -2.463901e+01 -8.708202e+00  6.262897e+01
      vertex  -1.671939e+01  6.939272e+00  6.181548e+01
      vertex  -1.413155e+01  3.628536e+00  5.498186e+01
    endloop
  endfacet
  facet normal  7.167644e-01 -6.954322e-01 -5.121382e-02
    outer loop
      vertex  -7.958227e+00 -3.057039e+01  7.716692e+01
      vertex  -9.532318e-01 -2.332759e+01  7.685567e+01
      vertex   3.976201e+00 -1.910979e+01  8.857211e+01
    endloop
  endfacet
  facet normal -3.160456e-01 -8.376048e-01 -4.455710e-01
    outer loop
      vertex  -1.005764e+01 -2.099952e+01  3.000094e+01
      vertex   9.204912e+00 -2.401621e+01  2.200883e+01
      vertex  -5.378124e+00 -2.844398e+01  4.067617e+01
    endloop
  endfacet
  facet normal -4.490674e-01  4.723866e-02  8.922483e-01
    outer loop
      vertex   7.059940e+00  6.316053e+00  9.730544e+01
      vertex   1.504458e+01  4.029021e+00  1.014452e+02
      vertex   1.435950e+01  1.452176e+01  1.005449e+02
    endloop
  endfacet
  facet normal -4.736015e-01 -8.530161e-01 -2.192378e-01
    outer loop
      vertex   1.393037e+01 -2.991615e+01  3.475647e+01
      vertex   9.204912e+00 -2.401621e+01  2.200883e+01
      vertex   1.991973e+01 -3.346968e+01  3.564431e+01
    endloop
  endfacet
  facet normal  1.169840e-01 -7.591003e-01  6.403761e-01
    outer loop
      vertex  -1.020585e+01 -2.198395e+01  8.775587e+01
      vertex  -7.958227e+00 -3.057039e+01  7.716692e+01
      vertex   3.976201e+00 -1.910979e+01  8.857211e+01
    endloop
  endfacet
  facet normal -5.981659e-01  2.965919e-02  8.008232e-01
    outer loop
      vertex   1.504458e+01  4.029021e+00  1.014452e+02
      vertex   3.343085e+01  2.287252e+01  1.144807e+02
      vertex   1.435950e+01  1.452176e+01  1.005449e+02
    endloop
  endfacet
  facet normal -1.180664e-01 -9.829958e-01 -1.406394e-01
    outer loop
      vertex   5.808916e-02 -2.994268e+01  4.658763e+01
      vertex  -5.378124e+00 -2.844398e+01  4.067617e+01
      vertex   1.393037e+01 -2.991615e+01  3.475647e+01
    endloop
  endfacet
  facet normal  5.191480e-01 -8.501795e-01  8.763651e-02
    outer loop
      vertex   1.012883e+01 -1.671442e+01  7.536268e+01
      vertex   3.976201e+00 -1.910979e+01  8.857211e+01
      vertex  -9.532318e-01 -2.332759e+01  7.685567e+01
    endloop
  endfacet
  facet normal -2.707554e-01 -3.548572e-01  8.948565e-01
    outer loop
      vertex   1.504458e+01  4.029021e+00  1.014452e+02
      vertex   2.737810e+01  6.431663e+00  1.061297e+02
      vertex   3.343085e+01  2.287252e+01  1.144807e+02
    endloop
  endfacet
  facet normal  9.048814e-01 -3.286988e-01  2.704568e-01
    outer loop
      vertex   1.067773e+01 -3.463510e+00  8.963063e+01
      vertex   1.012883e+01 -1.671442e+01  7.536268e+01
      vertex   1.392766e+01  6.039099e-01  8.370049e+01
    endloop
  endfacet
  facet normal  1.775039e-01  8.738311e-01 -4.526716e-01
    outer loop
      vertex   4.379550e+00  4.278270e+01  8.922746e+01
      vertex   1.951949e+01  4.561281e+01  1.006274e+02
      vertex   1.451594e+01  4.032645e+01  8.846066e+01
    endloop
  endfacet
  facet normal  3.398302e-01  7.354002e-01  5.862610e-01
    outer loop
      vertex   6.085020e+01  1.538899e+01  4.549508e+01
      vertex   5.098499e+01  2.268564e+01  4.206067e+01
      vertex   3.846056e+01  2.553831e+01  4.574218e+01
    endloop
  endfacet
  facet normal  2.828405e-01  6.058489e-01  7.436049e-01
    outer loop
      vertex   3.846056e+01  2.553831e+01  4.574218e+01
      vertex   4.873251e+01  1.496548e+01  5.044926e+01
      vertex   6.085020e+01  1.538899e+01  4.549508e+01
    endloop
  endfacet
  facet normal  8.916364e-03 -8.831891e-01  4.689323e-01
    outer loop
      vertex   1.350566e+01 -2.757352e+01  5.079403e+01
      vertex   4.314745e+00 -2.227061e+01  6.095631e+01
      vertex   5.808916e-02 -2.994268e+01  4.658763e+01
    endloop
  endfacet
  facet normal  7.047701e-01  6.212554e-01  3.425505e-01
    outer loop
      vertex   7.503686e+01 -1.587069e+00  5.606377e+01
      vertex   6.523891e+01  1.155079e+01  5.239521e+01
      vertex   5.908897e+01  1.167966e+01  6.481451e+01
    endloop
  endfacet
  facet normal  1.563530e-01 -8.105714e-01  5.643827e-01
    outer loop
      vertex   1.350566e+01 -2.757352e+01  5.079403e+01
      vertex   1.185321e+01 -1.909315e+01  6.343140e+01
      vertex   4.314745e+00 -2.227061e+01  6.095631e+01
    endloop
  endfacet
  facet normal  7.648480e-01  2.122765e-01 -6.082321e-01
    outer loop
      vertex   3.908479e+01  2.010714e+01  1.003246e+02
      vertex   3.284473e+01  1.526793e+01  9.078884e+01
      vertex   3.386433e+01  2.794570e+01  9.649560e+01
    endloop
  endfacet
  facet normal  6.519348e-01  3.349822e-01  6.802704e-01
    outer loop
      vertex   6.209473e+01 -6.556138e+00  7.091371e+01
      vertex   7.503686e+01 -1.587069e+00  5.606377e+01
      vertex   5.908897e+01  1.167966e+01  6.481451e+01
    endloop
  endfacet
  facet normal  9.686478e-01  2.466529e-01 -2.972774e-02
    outer loop
      vertex   8.316732e+01 -9.823234e+00  3.136356e+01
      vertex   8.456592e+01 -1.615624e+01  2.439003e+01
      vertex   8.144174e+01 -4.165781e+00  2.207762e+01
    endloop
  endfacet
  facet normal  1.732181e-01  9.769078e-01  1.250862e-01
    outer loop
      vertex   3.561258e+01  1.605044e+01  6.014419e+01
      vertex   4.873251e+01  1.496548e+01  5.044926e+01
      vertex   3.283653e+01  1.825318e+01  4.678536e+01
    endloop
  endfacet
  facet normal  1.895120e-01  9.706857e-01  1.478327e-01
    outer loop
      vertex   4.873251e+01  1.496548e+01  5.044926e+01
      vertex   3.561258e+01  1.605044e+01  6.014419e+01
      vertex   4.838374e+01  1.366267e+01  5.945074e+01
    endloop
  endfacet
  facet normal  8.683434e-01 -2.678596e-01  4.174099e-01
    outer loop
      vertex   8.316732e+01 -9.823234e+00  3.136356e+01
      vertex   8.140731e+01 -2.241140e+01  2.694687e+01
      vertex   8.456592e+01 -1.615624e+01  2.439003e+01
    endloop
  endfacet
  facet normal  5.473208e-01  8.321652e-01  8.911262e-02
    outer loop
      vertex   6.321067e+01  1.602566e+01  2.505183e+01
      vertex   6.085020e+01  1.538899e+01  4.549508e+01
      vertex   7.474757e+01  6.521758e+00  4.294419e+01
    endloop
  endfacet
  facet normal  5.495245e-01 -3.439711e-01  7.613847e-01
    outer loop
      vertex   7.567752e+01 -2.008676e+01  3.213251e+01
      vertex   8.140731e+01 -2.241140e+01  2.694687e+01
      vertex   8.316732e+01 -9.823234e+00  3.136356e+01
    endloop
  endfacet
  facet normal -9.844488e-02  1.455952e-01  9.844342e-01
    outer loop
      vertex   7.695712e+01 -5.389832e+00  3.008684e+01
      vertex   7.567752e+01 -2.008676e+01  3.213251e+01
      vertex   8.316732e+01 -9.823234e+00  3.136356e+01
    endloop
  endfacet
  facet normal  1.374987e-01  9.001696e-01  4.132659e-01
    outer loop
      vertex   6.523891e+01  1.155079e+01  5.239521e+01
      vertex   6.085020e+01  1.538899e+01  4.549508e+01
      vertex   4.873251e+01  1.496548e+01  5.044926e+01
    endloop
  endfacet
  facet normal -8.425484e-01 -5.370671e-01  4.088116e-02
    outer loop
      vertex  -3.503067e+00 -2.330666e+01  5.275087e+00
      vertex   8.842993e-01 -2.995245e+01  8.389843e+00
      vertex  -2.317900e+00 -2.473118e+01  1.098673e+01
    endloop
  endfacet
  facet normal  4.808315e-01  7.856483e-01  3.893041e-01
    outer loop
      vertex   8.316732e+01 -9.823234e+00  3.136356e+01
      vertex   8.144174e+01 -4.165781e+00  2.207762e+01
      vertex   7.695712e+01 -5.389832e+00  3.008684e+01
    endloop
  endfacet
  facet normal  1.836220e-01  9.718267e-01  1.477696e-01
    outer loop
      vertex   4.873251e+01  1.496548e+01  5.044926e+01
      vertex   4.838374e+01  1.366267e+01  5.945074e+01
      vertex   6.523891e+01  1.155079e+01  5.239521e+01
    endloop
  endfacet
  facet normal  1.695949e-01 -9.806656e-01 -9.763417e-02
    outer loop
      vertex   1.155175e+01 -2.779754e+01  5.275187e+00
      vertex   1.576700e+01 -2.782985e+01  1.292174e+01
      vertex   8.842993e-01 -2.995245e+01  8.389843e+00
    endloop
  endfacet
  facet normal  1.505223e-01  9.865133e-01  6.430078e-02
    outer loop
      vertex   5.908897e+01  1.167966e+01  6.481451e+01
      vertex   6.523891e+01  1.155079e+01  5.239521e+01
      vertex   4.838374e+01  1.366267e+01  5.945074e+01
    endloop
  endfacet
  facet normal  8.349465e-01  4.677889e-01 -2.898929e-01
    outer loop
      vertex   7.474757e+01  6.521758e+00  4.294419e+01
      vertex   7.695712e+01 -5.389832e+00  3.008684e+01
      vertex   6.321067e+01  1.602566e+01  2.505183e+01
    endloop
  endfacet
  facet normal  6.792317e-01 -1.080036e-01  7.259335e-01
    outer loop
      vertex   7.350896e+01 -1.333309e+01  5.922553e+01
      vertex   6.209473e+01 -6.556138e+00  7.091371e+01
      vertex   6.845994e+01 -2.224016e+01  6.262455e+01
    endloop
  endfacet
  facet normal  9.843031e-01 -1.054020e-01 -1.415557e-01
    outer loop
      vertex   7.695712e+01 -5.389832e+00  3.008684e+01
      vertex   7.787206e+01 -1.624955e+01  4.453501e+01
      vertex   7.567752e+01 -2.008676e+01  3.213251e+01
    endloop
  endfacet
  facet normal  7.369645e-01  8.464982e-02  6.706100e-01
    outer loop
      vertex   7.350896e+01 -1.333309e+01  5.922553e+01
      vertex   7.503686e+01 -1.587069e+00  5.606377e+01
      vertex   6.209473e+01 -6.556138e+00  7.091371e+01
    endloop
  endfacet
  facet normal  9.894657e-01  1.386707e-01  4.157031e-02
    outer loop
      vertex   7.474757e+01  6.521758e+00  4.294419e+01
      vertex   7.787206e+01 -1.624955e+01  4.453501e+01
      vertex   7.695712e+01 -5.389832e+00  3.008684e+01
    endloop
  endfacet
  facet normal -1.041726e-01 -7.244490e-01  6.814116e-01
    outer loop
      vertex   8.842993e-01 -2.995245e+01  8.389843e+00
      vertex   1.576700e+01 -2.782985e+01  1.292174e+01
      vertex   8.617813e+00 -2.304990e+01  1.691063e+01
    endloop
  endfacet
  facet normal -3.208803e-01 -5.721818e-01  7.547476e-01
    outer loop
      vertex  -2.317900e+00 -2.473118e+01  1.098673e+01
      vertex   8.842993e-01 -2.995245e+01  8.389843e+00
      vertex   8.617813e+00 -2.304990e+01  1.691063e+01
    endloop
  endfacet
  facet normal -5.862071e-01 -8.056689e-01 -8.519902e-02
    outer loop
      vertex   8.617813e+00 -2.304990e+01  1.691063e+01
      vertex   1.576700e+01 -2.782985e+01  1.292174e+01
      vertex   9.204912e+00 -2.401621e+01  2.200883e+01
    endloop
  endfacet
  facet normal -1.646583e-01  2.632305e-01  9.505773e-01
    outer loop
      vertex   4.873251e+01  1.496548e+01  5.044926e+01
      vertex   3.846056e+01  2.553831e+01  4.574218e+01
      vertex   3.283653e+01  1.825318e+01  4.678536e+01
    endloop
  endfacet
  facet normal -4.828753e-01  4.047771e-01  7.765224e-01
    outer loop
      vertex  -2.317900e+00 -2.473118e+01  1.098673e+01
      vertex   8.617813e+00 -2.304990e+01  1.691063e+01
      vertex   7.532763e+00 -1.174999e+01  1.034560e+01
    endloop
  endfacet
  facet normal  8.291420e-01 -5.584302e-01  2.606144e-02
    outer loop
      vertex   7.567752e+01 -2.008676e+01  3.213251e+01
      vertex   7.787206e+01 -1.624955e+01  4.453501e+01
      vertex   6.886688e+01 -2.947534e+01  4.763890e+01
    endloop
  endfacet
  facet normal  8.249956e-01 -4.998311e-01  2.637253e-01
    outer loop
      vertex   6.845994e+01 -2.224016e+01  6.262455e+01
      vertex   6.886688e+01 -2.947534e+01  4.763890e+01
      vertex   7.787206e+01 -1.624955e+01  4.453501e+01
    endloop
  endfacet
  facet normal -2.632165e-01  8.253370e-01 -4.995357e-01
    outer loop
      vertex  -1.671939e+01  6.939272e+00  6.181548e+01
      vertex   2.108014e+00  1.254310e+01  6.115358e+01
      vertex  -1.413155e+01  3.628536e+00  5.498186e+01
    endloop
  endfacet
  facet normal -7.191665e-01  6.757075e-01  1.619227e-01
    outer loop
      vertex  -9.279182e+00  9.087935e+00  8.589413e+01
      vertex  -1.671939e+01  6.939272e+00  6.181548e+01
      vertex  -2.067104e+01  1.149122e+00  6.842700e+01
    endloop
  endfacet
  facet normal -2.334342e-01  7.369140e-01  6.344023e-01
    outer loop
      vertex  -2.856853e+00 -3.918396e+00  1.248444e+01
      vertex   7.499209e+00  5.543907e+00  5.303755e+00
      vertex  -7.536015e+00  4.799800e-01  5.653601e+00
    endloop
  endfacet
  facet normal -2.155366e-01  2.452106e-01 -9.452067e-01
    outer loop
      vertex   3.207345e+00  3.297364e+01  8.323846e+01
      vertex   3.005467e-01  1.206050e+01  7.847591e+01
      vertex  -6.792906e+00  1.176357e+01  8.001640e+01
    endloop
  endfacet
  facet normal -8.931993e-01  4.371392e-01 -1.053780e-01
    outer loop
      vertex   3.207345e+00  3.297364e+01  8.323846e+01
      vertex  -6.792906e+00  1.176357e+01  8.001640e+01
      vertex  -4.637623e+00  1.759976e+01  8.595815e+01
    endloop
  endfacet
  facet normal  8.695134e-01 -3.665681e-01  3.310202e-01
    outer loop
      vertex   6.845994e+01 -2.224016e+01  6.262455e+01
      vertex   7.787206e+01 -1.624955e+01  4.453501e+01
      vertex   7.350896e+01 -1.333309e+01  5.922553e+01
    endloop
  endfacet
  facet normal -9.783714e-01 -1.668919e-01 -1.222149e-01
    outer loop
      vertex   6.150977e+00  3.444520e+00  1.553199e+01
      vertex   8.067485e+00 -1.001481e+01  1.856924e+01
      vertex   5.427819e+00  3.043904e+00  2.186817e+01
    endloop
  endfacet
  facet normal -2.335501e-01  8.602899e-01  4.531618e-01
    outer loop
      vertex   2.108014e+00  1.254310e+01  6.115358e+01
      vertex   1.484423e+01  1.446030e+01  6.407790e+01
      vertex   6.387818e+00  2.049004e+01  4.827269e+01
    endloop
  endfacet
  facet normal -2.590662e-01  6.897918e-01  6.760710e-01
    outer loop
      vertex   1.239039e+01  8.451299e+00  6.926856e+01
      vertex   1.484423e+01  1.446030e+01  6.407790e+01
      vertex   2.108014e+00  1.254310e+01  6.115358e+01
    endloop
  endfacet
  facet normal  9.275057e-01  3.230781e-01  1.880259e-01
    outer loop
      vertex   1.239039e+01  8.451299e+00  6.926856e+01
      vertex   1.118608e+01  5.826099e+00  7.972004e+01
      vertex   1.565356e+01 -2.801218e+00  7.250660e+01
    endloop
  endfacet
  facet normal  6.933050e-01  6.197438e-01  3.677578e-01
    outer loop
      vertex   7.503686e+01 -1.587069e+00  5.606377e+01
      vertex   7.474757e+01  6.521758e+00  4.294419e+01
      vertex   6.523891e+01  1.155079e+01  5.239521e+01
    endloop
  endfacet
  facet normal -5.350365e-02  9.983201e-01  2.223019e-02
    outer loop
      vertex   3.005467e-01  1.206050e+01  7.847591e+01
      vertex   2.108014e+00  1.254310e+01  6.115358e+01
      vertex  -6.420513e+00  1.198661e+01  6.561791e+01
    endloop
  endfacet
  facet normal -8.027562e-01 -1.533831e-01 -5.762430e-01
    outer loop
      vertex  -1.866138e+01 -6.695148e+00  3.817920e+01
      vertex  -6.250261e+00 -1.613598e+01  2.340237e+01
      vertex  -1.005764e+01 -2.099952e+01  3.000094e+01
    endloop
  endfacet
  facet normal  5.490033e-01  8.283389e-01  1.115796e-01
    outer loop
      vertex   6.523891e+01  1.155079e+01  5.239521e+01
      vertex   7.474757e+01  6.521758e+00  4.294419e+01
      vertex   6.085020e+01  1.538899e+01  4.549508e+01
    endloop
  endfacet
  facet normal -7.597156e-01  1.862621e-02 -6.499887e-01
    outer loop
      vertex  -8.455625e+00  4.079820e+00  2.655934e+01
      vertex  -6.250261e+00 -1.613598e+01  2.340237e+01
      vertex  -1.866138e+01 -6.695148e+00  3.817920e+01
    endloop
  endfacet
  facet normal  9.880152e-01  1.400947e-01  6.480233e-02
    outer loop
      vertex   7.474757e+01  6.521758e+00  4.294419e+01
      vertex   7.503686e+01 -1.587069e+00  5.606377e+01
      vertex   7.787206e+01 -1.624955e+01  4.453501e+01
    endloop
  endfacet
  facet normal  1.170188e-01  5.375183e-01  8.350932e-01
    outer loop
      vertex   3.561258e+01  1.605044e+01  6.014419e+01
      vertex   1.484423e+01  1.446030e+01  6.407790e+01
      vertex   3.058067e+01  7.008968e+00  6.666895e+01
    endloop
  endfacet
  facet normal -2.948856e-01 -8.784567e-01 -3.759739e-01
    outer loop
      vertex  -1.491684e+01 -3.318015e+01  7.120139e+01
      vertex  -1.869409e+01 -2.631175e+01  5.811609e+01
      vertex  -3.973054e+00 -3.279933e+01  6.172814e+01
    endloop
  endfacet
  facet normal  1.587117e-01  3.152658e-01  9.356378e-01
    outer loop
      vertex   3.058067e+01  7.008968e+00  6.666895e+01
      vertex   1.239039e+01  8.451299e+00  6.926856e+01
      vertex   1.565356e+01 -2.801218e+00  7.250660e+01
    endloop
  endfacet
  facet normal  9.551243e-01 -4.545350e-02  2.926970e-01
    outer loop
      vertex   7.350896e+01 -1.333309e+01  5.922553e+01
      vertex   7.787206e+01 -1.624955e+01  4.453501e+01
      vertex   7.503686e+01 -1.587069e+00  5.606377e+01
    endloop
  endfacet
  facet normal  1.593862e-01  6.072624e-01  7.783499e-01
    outer loop
      vertex   1.239039e+01  8.451299e+00  6.926856e+01
      vertex   3.058067e+01  7.008968e+00  6.666895e+01
      vertex   1.484423e+01  1.446030e+01  6.407790e+01
    endloop
  endfacet
  facet normal  1.978537e-01 -9.616592e-01  1.899091e-01
    outer loop
      vertex  -3.973054e+00 -3.279933e+01  6.172814e+01
      vertex  -7.958227e+00 -3.057039e+01  7.716692e+01
      vertex  -1.491684e+01 -3.318015e+01  7.120139e+01
    endloop
  endfacet
  facet normal  5.039454e-01  8.536608e-01 -1.315381e-01
    outer loop
      vertex   3.775163e+00  1.160147e+01  8.880872e+01
      vertex   1.118608e+01  5.826099e+00  7.972004e+01
      vertex   3.005467e-01  1.206050e+01  7.847591e+01
    endloop
  endfacet
  facet normal  7.148449e-01  6.832922e-01  1.486898e-01
    outer loop
      vertex   1.118608e+01  5.826099e+00  7.972004e+01
      vertex   3.775163e+00  1.160147e+01  8.880872e+01
      vertex   7.059940e+00  6.316053e+00  9.730544e+01
    endloop
  endfacet
  facet normal -6.752744e-02  9.492427e-01  3.072107e-01
    outer loop
      vertex   3.387714e+01  1.696380e+01  1.360640e+01
      vertex   1.491204e+01  1.829805e+01  5.315046e+00
      vertex   1.661003e+01  1.613952e+01  1.235787e+01
    endloop
  endfacet
  facet normal -6.144582e-02 -5.883346e-01 -8.062796e-01
    outer loop
      vertex  -3.973054e+00 -3.279933e+01  6.172814e+01
      vertex  -1.869409e+01 -2.631175e+01  5.811609e+01
      vertex  -9.070061e+00 -2.276773e+01  5.479661e+01
    endloop
  endfacet
  facet normal -6.838597e-02  2.472387e-01  9.665384e-01
    outer loop
      vertex   3.775163e+00  1.160147e+01  8.880872e+01
      vertex  -6.341752e+00  3.568226e+00  9.014780e+01
      vertex   2.933869e+00 -1.519130e+00  9.210542e+01
    endloop
  endfacet
  facet normal  3.989542e-01 -3.753714e-01 -8.366193e-01
    outer loop
      vertex  -9.070061e+00 -2.276773e+01  5.479661e+01
      vertex   4.314745e+00 -2.227061e+01  6.095631e+01
      vertex  -3.973054e+00 -3.279933e+01  6.172814e+01
    endloop
  endfacet
  facet normal -8.797533e-01  1.681466e-01  4.447031e-01
    outer loop
      vertex   7.059940e+00  6.316053e+00  9.730544e+01
      vertex   3.775163e+00  1.160147e+01  8.880872e+01
      vertex   2.933869e+00 -1.519130e+00  9.210542e+01
    endloop
  endfacet
  facet normal -6.840904e-01 -7.209117e-01  1.109352e-01
    outer loop
      vertex  -9.070061e+00 -2.276773e+01  5.479661e+01
      vertex  -1.774297e+01 -1.651018e+01  4.197913e+01
      vertex  -5.378124e+00 -2.844398e+01  4.067617e+01
    endloop
  endfacet
  facet normal -7.385751e-01  6.729602e-01 -4.039221e-02
    outer loop
      vertex   1.435950e+01  1.452176e+01  1.005449e+02
      vertex   1.353832e+01  1.283776e+01  8.750353e+01
      vertex   7.059940e+00  6.316053e+00  9.730544e+01
    endloop
  endfacet
  facet normal -8.171647e-01 -5.457701e-01  1.854098e-01
    outer loop
      vertex  -2.300705e+01 -2.359325e+01  6.376492e+01
      vertex  -1.491684e+01 -3.318015e+01  7.120139e+01
      vertex  -1.979636e+01 -2.354190e+01  7.806670e+01
    endloop
  endfacet
  facet normal  5.371164e-01 -3.145752e-01 -7.826548e-01
    outer loop
      vertex   1.392766e+01  6.039099e-01  8.370049e+01
      vertex   1.118608e+01  5.826099e+00  7.972004e+01
      vertex   3.284473e+01  1.526793e+01  9.078884e+01
    endloop
  endfacet
  facet normal -7.578858e-01 -1.318524e-01 -6.389242e-01
    outer loop
      vertex  -1.809503e+01 -1.246459e+01  5.564175e+01
      vertex  -2.300705e+01 -2.359325e+01  6.376492e+01
      vertex  -2.463901e+01 -8.708202e+00  6.262897e+01
    endloop
  endfacet
  facet normal -9.786344e-01  1.836659e-01  9.242085e-02
    outer loop
      vertex  -1.587325e+01  5.667487e+00  4.313447e+01
      vertex  -1.866138e+01 -6.695148e+00  3.817920e+01
      vertex  -1.809503e+01 -1.246459e+01  5.564175e+01
    endloop
  endfacet
  facet normal -9.483649e-01 -8.056457e-02  3.067790e-01
    outer loop
      vertex  -2.300705e+01 -2.359325e+01  6.376492e+01
      vertex  -2.059663e+01 -7.632354e+00  7.540797e+01
      vertex  -2.463901e+01 -8.708202e+00  6.262897e+01
    endloop
  endfacet
  facet normal -1.795141e-01 -9.164534e-01 -3.576142e-01
    outer loop
      vertex   1.393037e+01 -2.991615e+01  3.475647e+01
      vertex  -5.378124e+00 -2.844398e+01  4.067617e+01
      vertex   9.204912e+00 -2.401621e+01  2.200883e+01
    endloop
  endfacet
  facet normal -9.756296e-01 -1.246536e-02  2.190696e-01
    outer loop
      vertex  -2.300705e+01 -2.359325e+01  6.376492e+01
      vertex  -1.979636e+01 -2.354190e+01  7.806670e+01
      vertex  -2.059663e+01 -7.632354e+00  7.540797e+01
    endloop
  endfacet
  facet normal -8.405744e-01  3.539421e-01 -4.100726e-01
    outer loop
      vertex  -1.587325e+01  5.667487e+00  4.313447e+01
      vertex  -8.455625e+00  4.079820e+00  2.655934e+01
      vertex  -1.866138e+01 -6.695148e+00  3.817920e+01
    endloop
  endfacet
  facet normal -2.114281e-01 -7.806395e-01  5.881327e-01
    outer loop
      vertex  -1.020585e+01 -2.198395e+01  8.775587e+01
      vertex  -1.491684e+01 -3.318015e+01  7.120139e+01
      vertex  -7.958227e+00 -3.057039e+01  7.716692e+01
    endloop
  endfacet
  facet normal  2.137809e-02  7.395935e-01 -6.727142e-01
    outer loop
      vertex   1.353832e+01  1.283776e+01  8.750353e+01
      vertex   3.284473e+01  1.526793e+01  9.078884e+01
      vertex   1.118608e+01  5.826099e+00  7.972004e+01
    endloop
  endfacet
  facet normal -5.544017e-01  6.508717e-01  5.186568e-01
    outer loop
      vertex  -1.413155e+01  3.628536e+00  5.498186e+01
      vertex   2.108014e+00  1.254310e+01  6.115358e+01
      vertex  -5.425049e+00  1.454173e+01  5.059323e+01
    endloop
  endfacet
  facet normal -9.781384e-01 -8.119544e-02 -1.914483e-01
    outer loop
      vertex  -1.979636e+01 -2.354190e+01  7.806670e+01
      vertex  -2.253155e+01 -8.419960e+00  8.562783e+01
      vertex  -2.059663e+01 -7.632354e+00  7.540797e+01
    endloop
  endfacet
  facet normal -9.171409e-01  2.933732e-01  2.697866e-01
    outer loop
      vertex   4.379550e+00  4.278270e+01  8.922746e+01
      vertex  -4.637623e+00  1.759976e+01  8.595815e+01
      vertex   2.252096e+00  3.196155e+01  9.376237e+01
    endloop
  endfacet
  facet normal -1.192330e-01  5.818561e-01 -8.045043e-01
    outer loop
      vertex   1.233382e+01  7.991922e+00  2.442330e+01
      vertex   5.427819e+00  3.043904e+00  2.186817e+01
      vertex   4.239265e+00  1.575254e+01  3.123582e+01
    endloop
  endfacet
  facet normal  1.269564e-01 -9.810061e-01  1.466595e-01
    outer loop
      vertex   5.808916e-02 -2.994268e+01  4.658763e+01
      vertex   1.393037e+01 -2.991615e+01  3.475647e+01
      vertex   1.350566e+01 -2.757352e+01  5.079403e+01
    endloop
  endfacet
  facet normal  6.008831e-02  5.149232e-01 -8.551278e-01
    outer loop
      vertex   4.379550e+00  4.278270e+01  8.922746e+01
      vertex   1.451594e+01  4.032645e+01  8.846066e+01
      vertex   3.207345e+00  3.297364e+01  8.323846e+01
    endloop
  endfacet
  facet normal  1.596331e-01  7.400341e-01 -6.533504e-01
    outer loop
      vertex   1.233382e+01  7.991922e+00  2.442330e+01
      vertex   4.239265e+00  1.575254e+01  3.123582e+01
      vertex   2.387436e+01  1.748760e+01  3.799853e+01
    endloop
  endfacet
  facet normal -8.666561e-01 -8.195964e-02  4.921278e-01
    outer loop
      vertex  -9.279182e+00  9.087935e+00  8.589413e+01
      vertex  -6.341752e+00  3.568226e+00  9.014780e+01
      vertex  -3.473199e+00  1.085344e+01  9.641272e+01
    endloop
  endfacet
  facet normal -4.725482e-01  7.184308e-01 -5.104463e-01
    outer loop
      vertex  -8.455625e+00  4.079820e+00  2.655934e+01
      vertex  -4.734532e+00  1.607808e+01  4.000155e+01
      vertex   4.239265e+00  1.575254e+01  3.123582e+01
    endloop
  endfacet
  facet normal -5.191733e-01 -8.475536e-01  1.100550e-01
    outer loop
      vertex   1.350566e+01 -2.757352e+01  5.079403e+01
      vertex   1.393037e+01 -2.991615e+01  3.475647e+01
      vertex   1.991973e+01 -3.346968e+01  3.564431e+01
    endloop
  endfacet
  facet normal -9.994847e-01 -2.995196e-02 -1.154801e-02
    outer loop
      vertex  -3.863001e+00  2.459447e+01  9.451027e+01
      vertex  -3.473199e+00  1.085344e+01  9.641272e+01
      vertex  -4.246583e+00  3.383884e+01  1.037324e+02
    endloop
  endfacet
  facet normal -2.289668e-01 -9.360024e-01  2.673457e-01
    outer loop
      vertex   3.625524e+01 -2.992478e+01  6.204579e+01
      vertex   1.350566e+01 -2.757352e+01  5.079403e+01
      vertex   1.991973e+01 -3.346968e+01  3.564431e+01
    endloop
  endfacet
  facet normal  5.853603e-01 -6.422821e-01  4.947999e-01
    outer loop
      vertex  -3.473199e+00  1.085344e+01  9.641272e+01
      vertex   3.775163e+00  1.160147e+01  8.880872e+01
      vertex   9.481033e+00  2.574012e+01  1.004114e+02
    endloop
  endfacet
  facet normal  3.705605e-01 -9.267921e-01  6.116581e-02
    outer loop
      vertex  -9.532318e-01 -2.332759e+01  7.685567e+01
      vertex   4.314745e+00 -2.227061e+01  6.095631e+01
      vertex   1.185321e+01 -1.909315e+01  6.343140e+01
    endloop
  endfacet
  facet normal  7.746832e-01 -5.938783e-01  2.171968e-01
    outer loop
      vertex  -9.532318e-01 -2.332759e+01  7.685567e+01
      vertex  -3.973054e+00 -3.279933e+01  6.172814e+01
      vertex   4.314745e+00 -2.227061e+01  6.095631e+01
    endloop
  endfacet
  facet normal  6.968836e-01 -6.621648e-01  2.754835e-01
    outer loop
      vertex  -7.958227e+00 -3.057039e+01  7.716692e+01
      vertex  -3.973054e+00 -3.279933e+01  6.172814e+01
      vertex  -9.532318e-01 -2.332759e+01  7.685567e+01
    endloop
  endfacet
  facet normal -4.304360e-01  8.982341e-01 -8.888411e-02
    outer loop
      vertex   1.353832e+01  1.283776e+01  8.750353e+01
      vertex   1.435950e+01  1.452176e+01  1.005449e+02
      vertex   2.665470e+01  1.975312e+01  9.386964e+01
    endloop
  endfacet
  facet normal  9.738389e-02  9.461148e-01  3.088416e-01
    outer loop
      vertex   6.387818e+00  2.049004e+01  4.827269e+01
      vertex   1.484423e+01  1.446030e+01  6.407790e+01
      vertex   3.283653e+01  1.825318e+01  4.678536e+01
    endloop
  endfacet
  facet normal  2.415606e-01 -9.680083e-01 -6.788374e-02
    outer loop
      vertex   5.520297e+01 -2.927131e+01  1.320926e+01
      vertex   6.098081e+01 -2.727307e+01  5.274811e+00
      vertex   6.754953e+01 -2.661246e+01  1.922906e+01
    endloop
  endfacet
  facet normal  4.031696e-01 -7.767795e-01 -4.838058e-01
    outer loop
      vertex   5.520297e+01 -2.927131e+01  1.320926e+01
      vertex   6.754953e+01 -2.661246e+01  1.922906e+01
      vertex   4.732650e+01 -3.589367e+01  1.727817e+01
    endloop
  endfacet
  facet normal  7.673644e-01 -5.331205e-01 -3.562784e-01
    outer loop
      vertex   8.140731e+01 -2.241140e+01  2.694687e+01
      vertex   7.089102e+01 -2.310494e+01  5.334326e+00
      vertex   8.456592e+01 -1.615624e+01  2.439003e+01
    endloop
  endfacet
  facet normal  5.775872e-01 -6.226493e-02  8.139510e-01
    outer loop
      vertex   1.012883e+01 -1.671442e+01  7.536268e+01
      vertex   1.777268e+01 -5.256981e+00  7.081499e+01
      vertex   1.565356e+01 -2.801218e+00  7.250660e+01
    endloop
  endfacet
  facet normal  8.847505e-01  1.451114e-01 -4.428987e-01
    outer loop
      vertex   8.456592e+01 -1.615624e+01  2.439003e+01
      vertex   7.423137e+01 -1.148669e+01  5.275290e+00
      vertex   8.144174e+01 -4.165781e+00  2.207762e+01
    endloop
  endfacet
  facet normal  7.415427e-02  9.841030e-01 -1.613765e-01
    outer loop
      vertex   3.283653e+01  1.825318e+01  4.678536e+01
      vertex   2.387436e+01  1.748760e+01  3.799853e+01
      vertex   6.387818e+00  2.049004e+01  4.827269e+01
    endloop
  endfacet
  facet normal  1.412982e-01  9.759247e-01 -1.661500e-01
    outer loop
      vertex   5.478268e+01  1.251942e+01  5.279762e+00
      vertex   1.491204e+01  1.829805e+01  5.315046e+00
      vertex   3.387714e+01  1.696380e+01  1.360640e+01
    endloop
  endfacet
  facet normal  5.249804e-02 -3.014115e-01  9.520479e-01
    outer loop
      vertex  -4.246583e+00  3.383884e+01  1.037324e+02
      vertex  -3.473199e+00  1.085344e+01  9.641272e+01
      vertex   9.481033e+00  2.574012e+01  1.004114e+02
    endloop
  endfacet
  facet normal  1.184425e-01 -9.790560e-01  1.655916e-01
    outer loop
      vertex   2.794146e+01 -4.061755e+01  3.975731e+01
      vertex   3.590059e+01 -4.208937e+01  2.536228e+01
      vertex   5.702362e+01 -3.766803e+01  3.639471e+01
    endloop
  endfacet
  facet normal  4.052811e-02 -4.529124e-01  8.906335e-01
    outer loop
      vertex   3.976201e+00 -1.910979e+01  8.857211e+01
      vertex  -4.018327e+00 -9.805440e+00  9.366742e+01
      vertex  -1.020585e+01 -2.198395e+01  8.775587e+01
    endloop
  endfacet
  facet normal  3.206486e-01 -9.142869e-01 -2.475155e-01
    outer loop
      vertex   4.732650e+01 -3.589367e+01  1.727817e+01
      vertex   5.702362e+01 -3.766803e+01  3.639471e+01
      vertex   3.590059e+01 -4.208937e+01  2.536228e+01
    endloop
  endfacet
  facet normal -6.756417e-01  5.064316e-01 -5.357569e-01
    outer loop
      vertex  -4.246583e+00  3.383884e+01  1.037324e+02
      vertex   2.252096e+00  3.196155e+01  9.376237e+01
      vertex  -3.863001e+00  2.459447e+01  9.451027e+01
    endloop
  endfacet
  facet normal -2.174225e-01 -6.624823e-01  7.168297e-01
    outer loop
      vertex   7.142161e+00  4.053384e+01  1.133741e+02
      vertex  -4.246583e+00  3.383884e+01  1.037324e+02
      vertex   9.481033e+00  2.574012e+01  1.004114e+02
    endloop
  endfacet
  facet normal  1.683425e-01  9.805684e-01 -1.007290e-01
    outer loop
      vertex   5.540153e+01  1.332638e+01  1.416953e+01
      vertex   5.478268e+01  1.251942e+01  5.279762e+00
      vertex   3.387714e+01  1.696380e+01  1.360640e+01
    endloop
  endfacet
  facet normal  9.185180e-01 -3.159307e-01  2.377234e-01
    outer loop
      vertex   1.392766e+01  6.039099e-01  8.370049e+01
      vertex   1.012883e+01 -1.671442e+01  7.536268e+01
      vertex   1.565356e+01 -2.801218e+00  7.250660e+01
    endloop
  endfacet
  facet normal  1.528225e-01  8.186106e-01 -5.536442e-01
    outer loop
      vertex   3.387714e+01  1.696380e+01  1.360640e+01
      vertex   3.636438e+01  2.306116e+01  2.330842e+01
      vertex   5.540153e+01  1.332638e+01  1.416953e+01
    endloop
  endfacet
  facet normal  8.866380e-01  4.624471e-01 -3.970701e-03
    outer loop
      vertex   1.118608e+01  5.826099e+00  7.972004e+01
      vertex   1.392766e+01  6.039099e-01  8.370049e+01
      vertex   1.565356e+01 -2.801218e+00  7.250660e+01
    endloop
  endfacet
  facet normal  9.879978e-01  1.316923e-01 -8.073171e-02
    outer loop
      vertex   5.636407e+01  6.604677e-01  5.288113e+00
      vertex   5.478268e+01  1.251942e+01  5.279762e+00
      vertex   5.540153e+01  1.332638e+01  1.416953e+01
    endloop
  endfacet
  facet normal  3.416379e-01 -2.083296e-01  9.164509e-01
    outer loop
      vertex   1.067773e+01 -3.463510e+00  8.963063e+01
      vertex  -4.018327e+00 -9.805440e+00  9.366742e+01
      vertex   3.976201e+00 -1.910979e+01  8.857211e+01
    endloop
  endfacet
  facet normal  2.894664e-01 -6.281669e-02  9.551247e-01
    outer loop
      vertex  -4.018327e+00 -9.805440e+00  9.366742e+01
      vertex   1.067773e+01 -3.463510e+00  8.963063e+01
      vertex   2.933869e+00 -1.519130e+00  9.210542e+01
    endloop
  endfacet
  facet normal  8.595992e-01 -3.904757e-01  3.295722e-01
    outer loop
      vertex   1.012883e+01 -1.671442e+01  7.536268e+01
      vertex   1.067773e+01 -3.463510e+00  8.963063e+01
      vertex   3.976201e+00 -1.910979e+01  8.857211e+01
    endloop
  endfacet
  facet normal  5.522698e-02 -9.371904e-01 -3.444187e-01
    outer loop
      vertex   4.240691e+01 -4.156204e+01  4.464685e+01
      vertex   2.794146e+01 -4.061755e+01  3.975731e+01
      vertex   5.702362e+01 -3.766803e+01  3.639471e+01
    endloop
  endfacet
  facet normal -5.442926e-01  6.853176e-01 -4.838236e-01
    outer loop
      vertex  -4.246583e+00  3.383884e+01  1.037324e+02
      vertex   8.188041e+00  4.410988e+01  1.042922e+02
      vertex   2.252096e+00  3.196155e+01  9.376237e+01
    endloop
  endfacet
  facet normal -1.471391e-01  9.878597e-01 -4.983085e-02
    outer loop
      vertex   4.379550e+00  4.278270e+01  8.922746e+01
      vertex   8.188041e+00  4.410988e+01  1.042922e+02
      vertex   1.951949e+01  4.561281e+01  1.006274e+02
    endloop
  endfacet
  facet normal  1.616781e-01  9.244518e-01 -3.453246e-01
    outer loop
      vertex   6.321067e+01  1.602566e+01  2.505183e+01
      vertex   5.540153e+01  1.332638e+01  1.416953e+01
      vertex   5.353732e+01  1.998102e+01  3.111153e+01
    endloop
  endfacet
  facet normal  5.895990e-01  5.761924e-01 -5.660172e-01
    outer loop
      vertex   6.822523e+01  4.163470e-01  1.438539e+01
      vertex   5.540153e+01  1.332638e+01  1.416953e+01
      vertex   6.321067e+01  1.602566e+01  2.505183e+01
    endloop
  endfacet
  facet normal -6.268877e-01  7.468473e-01  2.218808e-01
    outer loop
      vertex  -4.246583e+00  3.383884e+01  1.037324e+02
      vertex   7.142161e+00  4.053384e+01  1.133741e+02
      vertex   8.188041e+00  4.410988e+01  1.042922e+02
    endloop
  endfacet
  facet normal -5.036674e-01 -2.776861e-01  8.180524e-01
    outer loop
      vertex   1.504458e+01  4.029021e+00  1.014452e+02
      vertex   7.059940e+00  6.316053e+00  9.730544e+01
      vertex   2.933869e+00 -1.519130e+00  9.210542e+01
    endloop
  endfacet
  facet normal -9.379407e-01  2.736683e-01  2.130095e-01
    outer loop
      vertex   8.188041e+00  4.410988e+01  1.042922e+02
      vertex   4.379550e+00  4.278270e+01  8.922746e+01
      vertex   2.252096e+00  3.196155e+01  9.376237e+01
    endloop
  endfacet
  facet normal  3.133449e-01 -9.432572e-01  1.099130e-01
    outer loop
      vertex   4.240691e+01 -4.156204e+01  4.464685e+01
      vertex   5.702362e+01 -3.766803e+01  3.639471e+01
      vertex   5.787744e+01 -3.598109e+01  4.843765e+01
    endloop
  endfacet
  facet normal -5.110343e-03  9.306558e-01  3.658600e-01
    outer loop
      vertex   7.142161e+00  4.053384e+01  1.133741e+02
      vertex   1.951949e+01  4.561281e+01  1.006274e+02
      vertex   8.188041e+00  4.410988e+01  1.042922e+02
    endloop
  endfacet
  facet normal  1.739005e-01 -8.357909e-01  5.207804e-01
    outer loop
      vertex   4.844474e+01 -3.236362e+01  5.739305e+01
      vertex   4.240691e+01 -4.156204e+01  4.464685e+01
      vertex   5.787744e+01 -3.598109e+01  4.843765e+01
    endloop
  endfacet
  facet normal  1.437456e-01  5.252572e-01  8.387145e-01
    outer loop
      vertex   3.058067e+01  7.008968e+00  6.666895e+01
      vertex   4.838374e+01  1.366267e+01  5.945074e+01
      vertex   3.561258e+01  1.605044e+01  6.014419e+01
    endloop
  endfacet
  facet normal  3.057534e-01  8.971679e-01 -3.187545e-01
    outer loop
      vertex   5.353732e+01  1.998102e+01  3.111153e+01
      vertex   5.540153e+01  1.332638e+01  1.416953e+01
      vertex   3.636438e+01  2.306116e+01  2.330842e+01
    endloop
  endfacet
  facet normal  3.700433e-01 -5.742190e-01  7.303017e-01
    outer loop
      vertex   4.874666e+01 -2.082047e+01  7.372952e+01
      vertex   6.070419e+01 -2.862332e+01  6.153545e+01
      vertex   6.845994e+01 -2.224016e+01  6.262455e+01
    endloop
  endfacet
  facet normal  8.347060e-01  4.672796e-01 -2.914029e-01
    outer loop
      vertex   6.822523e+01  4.163470e-01  1.438539e+01
      vertex   6.321067e+01  1.602566e+01  2.505183e+01
      vertex   7.695712e+01 -5.389832e+00  3.008684e+01
    endloop
  endfacet
  facet normal  5.121325e-01 -8.548444e-01  8.343488e-02
    outer loop
      vertex   5.787744e+01 -3.598109e+01  4.843765e+01
      vertex   5.702362e+01 -3.766803e+01  3.639471e+01
      vertex   6.886688e+01 -2.947534e+01  4.763890e+01
    endloop
  endfacet
  facet normal  4.592339e-01 -2.621921e-01  8.487400e-01
    outer loop
      vertex   6.209473e+01 -6.556138e+00  7.091371e+01
      vertex   4.874666e+01 -2.082047e+01  7.372952e+01
      vertex   6.845994e+01 -2.224016e+01  6.262455e+01
    endloop
  endfacet
  facet normal  4.219773e-01 -8.577269e-01 -2.936661e-01
    outer loop
      vertex   4.732650e+01 -3.589367e+01  1.727817e+01
      vertex   6.754953e+01 -2.661246e+01  1.922906e+01
      vertex   5.702362e+01 -3.766803e+01  3.639471e+01
    endloop
  endfacet
  facet normal  4.101965e-01 -6.096185e-01  6.783097e-01
    outer loop
      vertex   4.844474e+01 -3.236362e+01  5.739305e+01
      vertex   5.787744e+01 -3.598109e+01  4.843765e+01
      vertex   6.886688e+01 -2.947534e+01  4.763890e+01
    endloop
  endfacet
  facet normal  5.577928e-01 -7.413943e-01  3.730976e-01
    outer loop
      vertex   6.070419e+01 -2.862332e+01  6.153545e+01
      vertex   6.886688e+01 -2.947534e+01  4.763890e+01
      vertex   6.845994e+01 -2.224016e+01  6.262455e+01
    endloop
  endfacet
  facet normal  4.180292e-01  9.052103e-01  7.645891e-02
    outer loop
      vertex   6.321067e+01  1.602566e+01  2.505183e+01
      vertex   5.353732e+01  1.998102e+01  3.111153e+01
      vertex   6.085020e+01  1.538899e+01  4.549508e+01
    endloop
  endfacet
  facet normal  6.060129e-01  7.935678e-01 -5.475817e-02
    outer loop
      vertex   6.085020e+01  1.538899e+01  4.549508e+01
      vertex   5.353732e+01  1.998102e+01  3.111153e+01
      vertex   5.098499e+01  2.268564e+01  4.206067e+01
    endloop
  endfacet
  facet normal -3.784351e-02  9.494371e-01 -3.116682e-01
    outer loop
      vertex   3.913478e+01  2.628455e+01  3.279146e+01
      vertex   3.636438e+01  2.306116e+01  2.330842e+01
      vertex   2.845898e+01  2.657813e+01  3.498208e+01
    endloop
  endfacet
  facet normal -1.455188e-01  4.158085e-01 -8.977347e-01
    outer loop
      vertex   3.386433e+01  2.794570e+01  9.649560e+01
      vertex   3.284473e+01  1.526793e+01  9.078884e+01
      vertex   2.665470e+01  1.975312e+01  9.386964e+01
    endloop
  endfacet
  facet normal  3.309329e-01  8.597783e-01 -3.889277e-01
    outer loop
      vertex   3.913478e+01  2.628455e+01  3.279146e+01
      vertex   5.353732e+01  1.998102e+01  3.111153e+01
      vertex   3.636438e+01  2.306116e+01  2.330842e+01
    endloop
  endfacet
  facet normal  3.964609e-02  9.974385e-01  5.953796e-02
    outer loop
      vertex   3.913478e+01  2.628455e+01  3.279146e+01
      vertex   2.845898e+01  2.657813e+01  3.498208e+01
      vertex   3.846056e+01  2.553831e+01  4.574218e+01
    endloop
  endfacet
  facet normal  8.398817e-01  5.415428e-01 -3.647260e-02
    outer loop
      vertex   3.908479e+01  2.010714e+01  1.003246e+02
      vertex   3.386433e+01  2.794570e+01  9.649560e+01
      vertex   3.217548e+01  3.135157e+01  1.081752e+02
    endloop
  endfacet
  facet normal  2.406103e-01  9.682146e-01  6.831634e-02
    outer loop
      vertex   3.846056e+01  2.553831e+01  4.574218e+01
      vertex   5.098499e+01  2.268564e+01  4.206067e+01
      vertex   3.913478e+01  2.628455e+01  3.279146e+01
    endloop
  endfacet
  facet normal  8.924075e-01  3.468046e-01  2.886787e-01
    outer loop
      vertex   3.343085e+01  2.287252e+01  1.144807e+02
      vertex   3.908479e+01  2.010714e+01  1.003246e+02
      vertex   3.217548e+01  3.135157e+01  1.081752e+02
    endloop
  endfacet
  facet normal  2.978344e-02 -8.994061e-01  4.360982e-01
    outer loop
      vertex   6.754953e+01 -2.661246e+01  1.922906e+01
      vertex   8.140731e+01 -2.241140e+01  2.694687e+01
      vertex   7.567752e+01 -2.008676e+01  3.213251e+01
    endloop
  endfacet
  facet normal  3.838482e-01  9.133075e-01 -1.361242e-01
    outer loop
      vertex   5.098499e+01  2.268564e+01  4.206067e+01
      vertex   5.353732e+01  1.998102e+01  3.111153e+01
      vertex   3.913478e+01  2.628455e+01  3.279146e+01
    endloop
  endfacet
  facet normal  6.779354e-01 -7.329581e-01 -5.635606e-02
    outer loop
      vertex   7.567752e+01 -2.008676e+01  3.213251e+01
      vertex   5.702362e+01 -3.766803e+01  3.639471e+01
      vertex   6.754953e+01 -2.661246e+01  1.922906e+01
    endloop
  endfacet
  facet normal  6.581942e-01 -7.363499e-01 -1.567457e-01
    outer loop
      vertex   6.886688e+01 -2.947534e+01  4.763890e+01
      vertex   5.702362e+01 -3.766803e+01  3.639471e+01
      vertex   7.567752e+01 -2.008676e+01  3.213251e+01
    endloop
  endfacet
  facet normal  5.287169e-01  5.138859e-01 -6.755589e-01
    outer loop
      vertex   5.540153e+01  1.332638e+01  1.416953e+01
      vertex   6.822523e+01  4.163470e-01  1.438539e+01
      vertex   5.636407e+01  6.604677e-01  5.288113e+00
    endloop
  endfacet
  facet normal  2.265936e-01 -9.549484e-01  1.916479e-01
    outer loop
      vertex   4.844474e+01 -3.236362e+01  5.739305e+01
      vertex   6.886688e+01 -2.947534e+01  4.763890e+01
      vertex   6.070419e+01 -2.862332e+01  6.153545e+01
    endloop
  endfacet
  facet normal  1.848235e-01  9.507588e-01  2.487934e-01
    outer loop
      vertex   6.822523e+01  4.163470e-01  1.438539e+01
      vertex   7.695712e+01 -5.389832e+00  3.008684e+01
      vertex   8.144174e+01 -4.165781e+00  2.207762e+01
    endloop
  endfacet
  facet normal  5.337563e-01  6.670898e-01 -5.197071e-01
    outer loop
      vertex   6.822523e+01  4.163470e-01  1.438539e+01
      vertex   8.144174e+01 -4.165781e+00  2.207762e+01
      vertex   7.423137e+01 -1.148669e+01  5.275290e+00
    endloop
  endfacet
  facet normal  5.543459e-02 -8.154549e-01  5.761599e-01
    outer loop
      vertex   4.874666e+01 -2.082047e+01  7.372952e+01
      vertex   3.625524e+01 -2.992478e+01  6.204579e+01
      vertex   6.070419e+01 -2.862332e+01  6.153545e+01
    endloop
  endfacet
  facet normal -2.948447e-01  8.412762e-01 -4.531234e-01
    outer loop
      vertex   3.636438e+01  2.306116e+01  2.330842e+01
      vertex   3.387714e+01  1.696380e+01  1.360640e+01
      vertex   2.845898e+01  2.657813e+01  3.498208e+01
    endloop
  endfacet
  facet normal -4.063009e-01 -6.531758e-01  6.389686e-01
    outer loop
      vertex   3.172360e+01 -3.486047e+01  1.588111e+01
      vertex   1.576700e+01 -2.782985e+01  1.292174e+01
      vertex   1.927509e+01 -3.671013e+01  6.074698e+00
    endloop
  endfacet
  facet normal -5.893516e-01  5.408992e-01  6.000773e-01
    outer loop
      vertex   3.846056e+01  2.553831e+01  4.574218e+01
      vertex   2.845898e+01  2.657813e+01  3.498208e+01
      vertex   3.283653e+01  1.825318e+01  4.678536e+01
    endloop
  endfacet
  facet normal -3.309332e-01  1.301905e-01  9.346302e-01
    outer loop
      vertex   4.730704e+01 -4.441841e+00  7.418647e+01
      vertex   3.058067e+01  7.008968e+00  6.666895e+01
      vertex   2.898292e+01 -1.109149e+01  6.862455e+01
    endloop
  endfacet
  facet normal  2.149413e-01 -8.353419e-03  9.765912e-01
    outer loop
      vertex   4.730704e+01 -4.441841e+00  7.418647e+01
      vertex   4.874666e+01 -2.082047e+01  7.372952e+01
      vertex   6.209473e+01 -6.556138e+00  7.091371e+01
    endloop
  endfacet
  facet normal -8.087240e-01 -6.938206e-02 -5.840819e-01
    outer loop
      vertex  -2.300705e+01 -2.359325e+01  6.376492e+01
      vertex  -1.809503e+01 -1.246459e+01  5.564175e+01
      vertex  -1.869409e+01 -2.631175e+01  5.811609e+01
    endloop
  endfacet
  facet normal -4.021905e-01 -2.262898e-01  8.871503e-01
    outer loop
      vertex  -2.253155e+01 -8.419960e+00  8.562783e+01
      vertex  -1.020585e+01 -2.198395e+01  8.775587e+01
      vertex  -4.018327e+00 -9.805440e+00  9.366742e+01
    endloop
  endfacet
  facet normal -2.199310e-01 -8.450127e-01  4.874258e-01
    outer loop
      vertex   2.794146e+01 -4.061755e+01  3.975731e+01
      vertex   4.240691e+01 -4.156204e+01  4.464685e+01
      vertex   3.625524e+01 -2.992478e+01  6.204579e+01
    endloop
  endfacet
  facet normal  5.243628e-02 -8.214022e-01  5.679339e-01
    outer loop
      vertex   4.240691e+01 -4.156204e+01  4.464685e+01
      vertex   4.844474e+01 -3.236362e+01  5.739305e+01
      vertex   3.625524e+01 -2.992478e+01  6.204579e+01
    endloop
  endfacet
  facet normal  2.495160e-01  3.438995e-01  9.052485e-01
    outer loop
      vertex   5.908897e+01  1.167966e+01  6.481451e+01
      vertex   4.730704e+01 -4.441841e+00  7.418647e+01
      vertex   6.209473e+01 -6.556138e+00  7.091371e+01
    endloop
  endfacet
  facet normal -6.001363e-02 -4.498482e-01  8.910863e-01
    outer loop
      vertex   1.777268e+01 -5.256981e+00  7.081499e+01
      vertex   1.185321e+01 -1.909315e+01  6.343140e+01
      vertex   2.898292e+01 -1.109149e+01  6.862455e+01
    endloop
  endfacet
  facet normal  2.330735e-01  8.409844e-02  9.688159e-01
    outer loop
      vertex   2.898292e+01 -1.109149e+01  6.862455e+01
      vertex   3.058067e+01  7.008968e+00  6.666895e+01
      vertex   1.777268e+01 -5.256981e+00  7.081499e+01
    endloop
  endfacet
  facet normal  8.688644e-01 -3.864987e-01 -3.093434e-01
    outer loop
      vertex   3.005467e-01  1.206050e+01  7.847591e+01
      vertex   1.089284e+01  2.739943e+01  8.906217e+01
      vertex   3.775163e+00  1.160147e+01  8.880872e+01
    endloop
  endfacet
  facet normal  5.768440e-01 -7.858593e-01 -2.228813e-01
    outer loop
      vertex   1.067773e+01 -3.463510e+00  8.963063e+01
      vertex   1.392766e+01  6.039099e-01  8.370049e+01
      vertex   2.413836e+01  4.679907e+00  9.575542e+01
    endloop
  endfacet
  facet normal -3.945604e-01  5.138455e-02  9.174321e-01
    outer loop
      vertex  -2.253155e+01 -8.419960e+00  8.562783e+01
      vertex  -4.018327e+00 -9.805440e+00  9.366742e+01
      vertex  -1.736212e+01 -1.302376e+00  8.745240e+01
    endloop
  endfacet
  facet normal -3.119528e-01  1.907551e-01  9.307513e-01
    outer loop
      vertex  -1.736212e+01 -1.302376e+00  8.745240e+01
      vertex  -4.018327e+00 -9.805440e+00  9.366742e+01
      vertex  -6.341752e+00  3.568226e+00  9.014780e+01
    endloop
  endfacet
  facet normal -7.134295e-02  2.422508e-01  9.675871e-01
    outer loop
      vertex  -4.018327e+00 -9.805440e+00  9.366742e+01
      vertex   2.933869e+00 -1.519130e+00  9.210542e+01
      vertex  -6.341752e+00  3.568226e+00  9.014780e+01
    endloop
  endfacet
  facet normal -8.129732e-01  4.722062e-01  3.407287e-01
    outer loop
      vertex   1.491204e+01  1.829805e+01  5.315046e+00
      vertex   7.499209e+00  5.543907e+00  5.303755e+00
      vertex   1.661003e+01  1.613952e+01  1.235787e+01
    endloop
  endfacet
  facet normal -3.627839e-02 -8.378215e-01  5.447375e-01
    outer loop
      vertex   2.933869e+00 -1.519130e+00  9.210542e+01
      vertex   1.067773e+01 -3.463510e+00  8.963063e+01
      vertex   1.504458e+01  4.029021e+00  1.014452e+02
    endloop
  endfacet
  facet normal -4.480598e-02 -8.360753e-01  5.467820e-01
    outer loop
      vertex   1.504458e+01  4.029021e+00  1.014452e+02
      vertex   1.067773e+01 -3.463510e+00  8.963063e+01
      vertex   2.737810e+01  6.431663e+00  1.061297e+02
    endloop
  endfacet
  facet normal  5.241424e-01 -8.513977e-01 -1.991908e-02
    outer loop
      vertex   1.067773e+01 -3.463510e+00  8.963063e+01
      vertex   2.413836e+01  4.679907e+00  9.575542e+01
      vertex   2.737810e+01  6.431663e+00  1.061297e+02
    endloop
  endfacet
  facet normal  6.401545e-01  8.490378e-02 -7.635401e-01
    outer loop
      vertex   3.005467e-01  1.206050e+01  7.847591e+01
      vertex   3.207345e+00  3.297364e+01  8.323846e+01
      vertex   1.089284e+01  2.739943e+01  8.906217e+01
    endloop
  endfacet
  facet normal  5.547548e-02 -8.171921e-01  5.736893e-01
    outer loop
      vertex   4.844474e+01 -3.236362e+01  5.739305e+01
      vertex   6.070419e+01 -2.862332e+01  6.153545e+01
      vertex   3.625524e+01 -2.992478e+01  6.204579e+01
    endloop
  endfacet
  facet normal -5.788050e-01  8.153368e-01 -1.450879e-02
    outer loop
      vertex   1.233382e+01  7.991922e+00  2.442330e+01
      vertex   6.150977e+00  3.444520e+00  1.553199e+01
      vertex   5.427819e+00  3.043904e+00  2.186817e+01
    endloop
  endfacet
  facet normal -6.532787e-01  7.539989e-01  6.864963e-02
    outer loop
      vertex   1.233382e+01  7.991922e+00  2.442330e+01
      vertex   7.499209e+00  5.543907e+00  5.303755e+00
      vertex   6.150977e+00  3.444520e+00  1.553199e+01
    endloop
  endfacet
  facet normal -7.916001e-01  5.984192e-01  1.235459e-01
    outer loop
      vertex   1.661003e+01  1.613952e+01  1.235787e+01
      vertex   7.499209e+00  5.543907e+00  5.303755e+00
      vertex   1.233382e+01  7.991922e+00  2.442330e+01
    endloop
  endfacet
  facet normal -7.898497e-02  8.389096e-01  5.385091e-01
    outer loop
      vertex   1.233382e+01  7.991922e+00  2.442330e+01
      vertex   3.387714e+01  1.696380e+01  1.360640e+01
      vertex   1.661003e+01  1.613952e+01  1.235787e+01
    endloop
  endfacet
  facet normal -5.274974e-01  7.167511e-01 -4.560859e-01
    outer loop
      vertex   1.233382e+01  7.991922e+00  2.442330e+01
      vertex   2.845898e+01  2.657813e+01  3.498208e+01
      vertex   3.387714e+01  1.696380e+01  1.360640e+01
    endloop
  endfacet
  facet normal  6.524342e-01 -6.867815e-01 -3.204073e-01
    outer loop
      vertex   3.284473e+01  1.526793e+01  9.078884e+01
      vertex   2.413836e+01  4.679907e+00  9.575542e+01
      vertex   1.392766e+01  6.039099e-01  8.370049e+01
    endloop
  endfacet
  facet normal  7.315409e-01 -6.672493e-01 -1.400942e-01
    outer loop
      vertex   2.413836e+01  4.679907e+00  9.575542e+01
      vertex   3.284473e+01  1.526793e+01  9.078884e+01
      vertex   3.908479e+01  2.010714e+01  1.003246e+02
    endloop
  endfacet
  facet normal -4.856049e-01  8.421519e-01 -2.344523e-01
    outer loop
      vertex   1.435950e+01  1.452176e+01  1.005449e+02
      vertex   2.515185e+01  2.213634e+01  1.055429e+02
      vertex   2.665470e+01  1.975312e+01  9.386964e+01
    endloop
  endfacet
  facet normal  9.101279e-01 -4.109053e-01  5.314054e-02
    outer loop
      vertex   9.481033e+00  2.574012e+01  1.004114e+02
      vertex   3.775163e+00  1.160147e+01  8.880872e+01
      vertex   1.089284e+01  2.739943e+01  8.906217e+01
    endloop
  endfacet
  facet normal -6.236939e-01  5.108629e-01  5.916292e-01
    outer loop
      vertex   2.387436e+01  1.748760e+01  3.799853e+01
      vertex   3.283653e+01  1.825318e+01  4.678536e+01
      vertex   2.845898e+01  2.657813e+01  3.498208e+01
    endloop
  endfacet
  facet normal -6.216243e-01  5.014355e-01  6.017855e-01
    outer loop
      vertex  -3.563997e-02 -1.504720e+01  5.275086e+00
      vertex  -2.317900e+00 -2.473118e+01  1.098673e+01
      vertex   7.532763e+00 -1.174999e+01  1.034560e+01
    endloop
  endfacet
  facet normal -7.127824e-01 -5.826457e-01  3.904679e-01
    outer loop
      vertex   1.927509e+01 -3.671013e+01  6.074698e+00
      vertex   1.576700e+01 -2.782985e+01  1.292174e+01
      vertex   1.155175e+01 -2.779754e+01  5.275187e+00
    endloop
  endfacet
  facet normal -6.932600e-01  6.834115e-01 -2.287778e-01
    outer loop
      vertex   2.665470e+01  1.975312e+01  9.386964e+01
      vertex   2.515185e+01  2.213634e+01  1.055429e+02
      vertex   3.386433e+01  2.794570e+01  9.649560e+01
    endloop
  endfacet
  facet normal -4.637941e-01 -2.447912e-01  8.514531e-01
    outer loop
      vertex  -7.536015e+00  4.799800e-01  5.653601e+00
      vertex  -3.563997e-02 -1.504720e+01  5.275086e+00
      vertex   7.532763e+00 -1.174999e+01  1.034560e+01
    endloop
  endfacet
  facet normal -7.201177e-01  6.311742e-01 -2.881834e-01
    outer loop
      vertex   3.217548e+01  3.135157e+01  1.081752e+02
      vertex   3.386433e+01  2.794570e+01  9.649560e+01
      vertex   2.515185e+01  2.213634e+01  1.055429e+02
    endloop
  endfacet
  facet normal -9.957949e-01 -5.166743e-02  7.565083e-02
    outer loop
      vertex   8.067485e+00 -1.001481e+01  1.856924e+01
      vertex   7.532763e+00 -1.174999e+01  1.034560e+01
      vertex   8.617813e+00 -2.304990e+01  1.691063e+01
    endloop
  endfacet
  facet normal -9.930570e-01 -5.514710e-02  1.039060e-01
    outer loop
      vertex   9.204912e+00 -2.401621e+01  2.200883e+01
      vertex   8.067485e+00 -1.001481e+01  1.856924e+01
      vertex   8.617813e+00 -2.304990e+01  1.691063e+01
    endloop
  endfacet
  facet normal -6.998504e-01  3.566259e-01  6.188921e-01
    outer loop
      vertex   3.343085e+01  2.287252e+01  1.144807e+02
      vertex   3.217548e+01  3.135157e+01  1.081752e+02
      vertex   2.515185e+01  2.213634e+01  1.055429e+02
    endloop
  endfacet
  facet normal -6.370008e-01  5.450064e-01  5.451587e-01
    outer loop
      vertex   3.343085e+01  2.287252e+01  1.144807e+02
      vertex   2.515185e+01  2.213634e+01  1.055429e+02
      vertex   1.435950e+01  1.452176e+01  1.005449e+02
    endloop
  endfacet
  facet normal -1.091263e-01 -6.647965e-01  7.390109e-01
    outer loop
      vertex   1.875494e+01  3.570696e+01  1.107468e+02
      vertex   7.142161e+00  4.053384e+01  1.133741e+02
      vertex   9.481033e+00  2.574012e+01  1.004114e+02
    endloop
  endfacet
  facet normal -2.123365e-01 -2.493605e-01 -9.448453e-01
    outer loop
      vertex   8.067485e+00 -1.001481e+01  1.856924e+01
      vertex   9.204912e+00 -2.401621e+01  2.200883e+01
      vertex  -6.250261e+00 -1.613598e+01  2.340237e+01
    endloop
  endfacet
  facet normal -3.748565e-01  1.551276e-01 -9.140121e-01
    outer loop
      vertex   5.427819e+00  3.043904e+00  2.186817e+01
      vertex   8.067485e+00 -1.001481e+01  1.856924e+01
      vertex  -6.250261e+00 -1.613598e+01  2.340237e+01
    endloop
  endfacet
  facet normal -3.104336e-01  1.135202e-01 -9.437924e-01
    outer loop
      vertex   5.427819e+00  3.043904e+00  2.186817e+01
      vertex  -6.250261e+00 -1.613598e+01  2.340237e+01
      vertex  -8.455625e+00  4.079820e+00  2.655934e+01
    endloop
  endfacet
  facet normal -4.899705e-01 -8.521464e-01 -1.837811e-01
    outer loop
      vertex   2.794146e+01 -4.061755e+01  3.975731e+01
      vertex   1.576700e+01 -2.782985e+01  1.292174e+01
      vertex   3.590059e+01 -4.208937e+01  2.536228e+01
    endloop
  endfacet
  facet normal -1.047325e-01  8.465000e-01  5.219855e-01
    outer loop
      vertex   3.058067e+01  7.008968e+00  6.666895e+01
      vertex   5.908897e+01  1.167966e+01  6.481451e+01
      vertex   4.838374e+01  1.366267e+01  5.945074e+01
    endloop
  endfacet
  facet normal -7.042881e-01 -5.009401e-01  5.030282e-01
    outer loop
      vertex   3.625524e+01 -2.992478e+01  6.204579e+01
      vertex   1.991973e+01 -3.346968e+01  3.564431e+01
      vertex   2.794146e+01 -4.061755e+01  3.975731e+01
    endloop
  endfacet
  facet normal -2.694374e-01 -1.580902e-01 -9.499531e-01
    outer loop
      vertex  -9.070061e+00 -2.276773e+01  5.479661e+01
      vertex  -1.869409e+01 -2.631175e+01  5.811609e+01
      vertex  -1.809503e+01 -1.246459e+01  5.564175e+01
    endloop
  endfacet
  facet normal -3.804947e-01 -6.258504e-01 -6.808342e-01
    outer loop
      vertex  -1.005764e+01 -2.099952e+01  3.000094e+01
      vertex  -6.250261e+00 -1.613598e+01  2.340237e+01
      vertex   9.204912e+00 -2.401621e+01  2.200883e+01
    endloop
  endfacet
  facet normal -3.285200e-01 -8.035935e-01  4.962984e-01
    outer loop
      vertex   1.350566e+01 -2.757352e+01  5.079403e+01
      vertex   3.625524e+01 -2.992478e+01  6.204579e+01
      vertex   1.185321e+01 -1.909315e+01  6.343140e+01
    endloop
  endfacet
  facet normal  9.418149e-01 -2.158511e-01 -2.576683e-01
    outer loop
      vertex   2.737810e+01  6.431663e+00  1.061297e+02
      vertex   2.413836e+01  4.679907e+00  9.575542e+01
      vertex   3.343085e+01  2.287252e+01  1.144807e+02
    endloop
  endfacet
  facet normal  6.061338e-01 -6.994101e-01  3.787180e-01
    outer loop
      vertex   3.908479e+01  2.010714e+01  1.003246e+02
      vertex   3.343085e+01  2.287252e+01  1.144807e+02
      vertex   2.413836e+01  4.679907e+00  9.575542e+01
    endloop
  endfacet
  facet normal  1.833710e-01 -9.818919e-01 -4.757348e-02
    outer loop
      vertex   1.927509e+01 -3.671013e+01  6.074698e+00
      vertex   3.921696e+01 -3.294719e+01  5.275089e+00
      vertex   3.172360e+01 -3.486047e+01  1.588111e+01
    endloop
  endfacet
  facet normal -7.955134e-02 -9.696657e-01 -2.311276e-01
    outer loop
      vertex   3.921696e+01 -3.294719e+01  5.275089e+00
      vertex   4.665522e+01 -3.356494e+01  5.306629e+00
      vertex   3.172360e+01 -3.486047e+01  1.588111e+01
    endloop
  endfacet
  facet normal -4.811442e-02 -9.809664e-01 -1.881219e-01
    outer loop
      vertex   4.665522e+01 -3.356494e+01  5.306629e+00
      vertex   4.732650e+01 -3.589367e+01  1.727817e+01
      vertex   3.172360e+01 -3.486047e+01  1.588111e+01
    endloop
  endfacet
  facet normal  1.695852e-03 -7.948616e-01 -6.067885e-01
    outer loop
      vertex   3.590059e+01 -4.208937e+01  2.536228e+01
      vertex   3.172360e+01 -3.486047e+01  1.588111e+01
      vertex   4.732650e+01 -3.589367e+01  1.727817e+01
    endloop
  endfacet
  facet normal  5.736773e-01 -7.973843e-01 -1.872772e-01
    outer loop
      vertex   4.665522e+01 -3.356494e+01  5.306629e+00
      vertex   5.520297e+01 -2.927131e+01  1.320926e+01
      vertex   4.732650e+01 -3.589367e+01  1.727817e+01
    endloop
  endfacet
  facet normal  4.014654e-01 -9.137582e-01  6.222083e-02
    outer loop
      vertex   6.098081e+01 -2.727307e+01  5.274811e+00
      vertex   5.520297e+01 -2.927131e+01  1.320926e+01
      vertex   4.665522e+01 -3.356494e+01  5.306629e+00
    endloop
  endfacet
  facet normal  8.280092e-01 -2.406333e-01 -5.064549e-01
    outer loop
      vertex   8.456592e+01 -1.615624e+01  2.439003e+01
      vertex   7.089102e+01 -2.310494e+01  5.334326e+00
      vertex   7.423137e+01 -1.148669e+01  5.275290e+00
    endloop
  endfacet
  facet normal  3.605236e-01 -9.212748e-01 -1.458610e-01
    outer loop
      vertex   6.754953e+01 -2.661246e+01  1.922906e+01
      vertex   7.089102e+01 -2.310494e+01  5.334326e+00
      vertex   8.140731e+01 -2.241140e+01  2.694687e+01
    endloop
  endfacet
  facet normal -7.980036e-01  5.093424e-01  3.221191e-01
    outer loop
      vertex   1.233382e+01  7.991922e+00  2.442330e+01
      vertex   2.387436e+01  1.748760e+01  3.799853e+01
      vertex   2.845898e+01  2.657813e+01  3.498208e+01
    endloop
  endfacet
  facet normal -1.096381e-01 -3.652534e-01  9.244293e-01
    outer loop
      vertex   1.185321e+01 -1.909315e+01  6.343140e+01
      vertex   3.625524e+01 -2.992478e+01  6.204579e+01
      vertex   2.898292e+01 -1.109149e+01  6.862455e+01
    endloop
  endfacet
  facet normal  5.070168e-01 -1.813127e-01 -8.426504e-01
    outer loop
      vertex   1.089284e+01  2.739943e+01  8.906217e+01
      vertex   3.207345e+00  3.297364e+01  8.323846e+01
      vertex   1.451594e+01  4.032645e+01  8.846066e+01
    endloop
  endfacet
  facet normal -2.669969e-01 -8.194507e-01 -5.071619e-01
    outer loop
      vertex   1.576700e+01 -2.782985e+01  1.292174e+01
      vertex   3.172360e+01 -3.486047e+01  1.588111e+01
      vertex   3.590059e+01 -4.208937e+01  2.536228e+01
    endloop
  endfacet
  facet normal  7.359139e-01 -6.770343e-01 -7.440487e-03
    outer loop
      vertex   1.089284e+01  2.739943e+01  8.906217e+01
      vertex   1.875494e+01  3.570696e+01  1.107468e+02
      vertex   9.481033e+00  2.574012e+01  1.004114e+02
    endloop
  endfacet
  facet normal -4.213464e-01 -4.397576e-01  7.931459e-01
    outer loop
      vertex   3.625524e+01 -2.992478e+01  6.204579e+01
      vertex   4.874666e+01 -2.082047e+01  7.372952e+01
      vertex   2.898292e+01 -1.109149e+01  6.862455e+01
    endloop
  endfacet
  facet normal  9.258331e-01 -2.717095e-01 -2.626917e-01
    outer loop
      vertex   1.451594e+01  4.032645e+01  8.846066e+01
      vertex   1.951949e+01  4.561281e+01  1.006274e+02
      vertex   1.089284e+01  2.739943e+01  8.906217e+01
    endloop
  endfacet
  facet normal  9.281758e-01 -2.985681e-01 -2.221412e-01
    outer loop
      vertex   1.875494e+01  3.570696e+01  1.107468e+02
      vertex   1.089284e+01  2.739943e+01  8.906217e+01
      vertex   1.951949e+01  4.561281e+01  1.006274e+02
    endloop
  endfacet
  facet normal  4.118851e-01  6.354246e-01  6.531357e-01
    outer loop
      vertex   1.875494e+01  3.570696e+01  1.107468e+02
      vertex   1.951949e+01  4.561281e+01  1.006274e+02
      vertex   7.142161e+00  4.053384e+01  1.133741e+02
    endloop
  endfacet
  facet normal -5.913909e-01 -8.012573e-01 -9.079390e-02
    outer loop
      vertex   9.204912e+00 -2.401621e+01  2.200883e+01
      vertex   1.576700e+01 -2.782985e+01  1.292174e+01
      vertex   1.991973e+01 -3.346968e+01  3.564431e+01
    endloop
  endfacet
  facet normal -6.427703e-01 -7.626839e-01 -7.182986e-02
    outer loop
      vertex   1.991973e+01 -3.346968e+01  3.564431e+01
      vertex   1.576700e+01 -2.782985e+01  1.292174e+01
      vertex   2.794146e+01 -4.061755e+01  3.975731e+01
    endloop
  endfacet
  facet normal -2.731423e-01 -5.080877e-02  9.606309e-01
    outer loop
      vertex   2.898292e+01 -1.109149e+01  6.862455e+01
      vertex   4.874666e+01 -2.082047e+01  7.372952e+01
      vertex   4.730704e+01 -4.441841e+00  7.418647e+01
    endloop
  endfacet
  facet normal  3.846945e-01 -9.126878e-01 -1.378805e-01
    outer loop
      vertex   7.089102e+01 -2.310494e+01  5.334326e+00
      vertex   6.754953e+01 -2.661246e+01  1.922906e+01
      vertex   6.098081e+01 -2.727307e+01  5.274811e+00
    endloop
  endfacet
  facet normal -2.931721e-02  5.182918e-01  8.547012e-01
    outer loop
      vertex   5.908897e+01  1.167966e+01  6.481451e+01
      vertex   3.058067e+01  7.008968e+00  6.666895e+01
      vertex   4.730704e+01 -4.441841e+00  7.418647e+01
    endloop
  endfacet
endsolid vcg
